<?xml version="1.0" encoding="UTF-8" standalone="no"?><svg xmlns="http://www.w3.org/2000/svg" xmlns:xlink="http://www.w3.org/1999/xlink" contentScriptType="application/ecmascript" contentStyleType="text/css" height="533px" preserveAspectRatio="none" style="width:658px;height:533px;" version="1.1" viewBox="0 0 658 533" width="658px" zoomAndPan="magnify"><defs><filter height="300%" id="fuak5k1" width="300%" x="-1" y="-1"><feGaussianBlur result="blurOut" stdDeviation="2.0"/><feColorMatrix in="blurOut" result="blurOut2" type="matrix" values="0 0 0 0 0 0 0 0 0 0 0 0 0 0 0 0 0 0 .4 0"/><feOffset dx="4.0" dy="4.0" in="blurOut2" result="blurOut3"/><feBlend in="SourceGraphic" in2="blurOut3" mode="normal"/></filter></defs><g><ellipse cx="357" cy="18" fill="#000000" filter="url(#fuak5k1)" rx="10" ry="10" style="stroke: none; stroke-width: 1.0;"/><rect fill="#F8F8F8" filter="url(#fuak5k1)" height="50.2529" rx="12.5" ry="12.5" style="stroke: #383838; stroke-width: 1.5;" width="63" x="326" y="90"/><line style="stroke: #383838; stroke-width: 1.5;" x1="326" x2="389" y1="116.29" y2="116.29"/><text fill="#000000" font-family="sans-serif" font-size="14" lengthAdjust="spacingAndGlyphs" textLength="43" x="336" y="108.3027">State1</text><text fill="#000000" font-family="sans-serif" font-size="12" lengthAdjust="spacingAndGlyphs" textLength="30" x="331" y="132.6924">t = 1</text><rect fill="#F8F8F8" filter="url(#fuak5k1)" height="50.2529" rx="12.5" ry="12.5" style="stroke: #383838; stroke-width: 1.5;" width="63" x="184" y="218"/><line style="stroke: #383838; stroke-width: 1.5;" x1="184" x2="247" y1="244.29" y2="244.29"/><text fill="#000000" font-family="sans-serif" font-size="14" lengthAdjust="spacingAndGlyphs" textLength="43" x="194" y="236.3027">State2</text><text fill="#000000" font-family="sans-serif" font-size="12" lengthAdjust="spacingAndGlyphs" textLength="30" x="189" y="260.6924">t = 2</text><rect fill="#F8F8F8" filter="url(#fuak5k1)" height="50.2529" rx="12.5" ry="12.5" style="stroke: #383838; stroke-width: 1.5;" width="63" x="19" y="346"/><line style="stroke: #383838; stroke-width: 1.5;" x1="19" x2="82" y1="372.29" y2="372.29"/><text fill="#000000" font-family="sans-serif" font-size="14" lengthAdjust="spacingAndGlyphs" textLength="43" x="29" y="364.3027">State3</text><text fill="#000000" font-family="sans-serif" font-size="12" lengthAdjust="spacingAndGlyphs" textLength="30" x="24" y="388.6924">t = 3</text><rect fill="#F8F8F8" filter="url(#fuak5k1)" height="50.2529" rx="12.5" ry="12.5" style="stroke: #383838; stroke-width: 1.5;" width="63" x="326" y="218"/><line style="stroke: #383838; stroke-width: 1.5;" x1="326" x2="389" y1="244.29" y2="244.29"/><text fill="#000000" font-family="sans-serif" font-size="14" lengthAdjust="spacingAndGlyphs" textLength="43" x="336" y="236.3027">State4</text><text fill="#000000" font-family="sans-serif" font-size="12" lengthAdjust="spacingAndGlyphs" textLength="26" x="331" y="260.6924">t =2</text><rect fill="#F8F8F8" filter="url(#fuak5k1)" height="50.2529" rx="12.5" ry="12.5" style="stroke: #383838; stroke-width: 1.5;" width="63" x="488" y="218"/><line style="stroke: #383838; stroke-width: 1.5;" x1="488" x2="551" y1="244.29" y2="244.29"/><text fill="#000000" font-family="sans-serif" font-size="14" lengthAdjust="spacingAndGlyphs" textLength="43" x="498" y="236.3027">State5</text><text fill="#000000" font-family="sans-serif" font-size="12" lengthAdjust="spacingAndGlyphs" textLength="30" x="493" y="260.6924">t = 2</text><rect fill="#F8F8F8" filter="url(#fuak5k1)" height="50.2529" rx="12.5" ry="12.5" style="stroke: #383838; stroke-width: 1.5;" width="63" x="116" y="346"/><line style="stroke: #383838; stroke-width: 1.5;" x1="116" x2="179" y1="372.29" y2="372.29"/><text fill="#000000" font-family="sans-serif" font-size="14" lengthAdjust="spacingAndGlyphs" textLength="43" x="126" y="364.3027">State6</text><text fill="#000000" font-family="sans-serif" font-size="12" lengthAdjust="spacingAndGlyphs" textLength="30" x="121" y="388.6924">t = 3</text><rect fill="#F8F8F8" filter="url(#fuak5k1)" height="50.2529" rx="12.5" ry="12.5" style="stroke: #383838; stroke-width: 1.5;" width="63" x="259" y="346"/><line style="stroke: #383838; stroke-width: 1.5;" x1="259" x2="322" y1="372.29" y2="372.29"/><text fill="#000000" font-family="sans-serif" font-size="14" lengthAdjust="spacingAndGlyphs" textLength="43" x="269" y="364.3027">State7</text><text fill="#000000" font-family="sans-serif" font-size="12" lengthAdjust="spacingAndGlyphs" textLength="30" x="264" y="388.6924">t = 3</text><rect fill="#F8F8F8" filter="url(#fuak5k1)" height="50.2529" rx="12.5" ry="12.5" style="stroke: #383838; stroke-width: 1.5;" width="63" x="480" y="346"/><line style="stroke: #383838; stroke-width: 1.5;" x1="480" x2="543" y1="372.29" y2="372.29"/><text fill="#000000" font-family="sans-serif" font-size="14" lengthAdjust="spacingAndGlyphs" textLength="43" x="490" y="364.3027">State8</text><text fill="#000000" font-family="sans-serif" font-size="12" lengthAdjust="spacingAndGlyphs" textLength="30" x="485" y="388.6924">t = 3</text><rect fill="#F8F8F8" filter="url(#fuak5k1)" height="50.2529" rx="12.5" ry="12.5" style="stroke: #383838; stroke-width: 1.5;" width="89" x="6" y="474"/><line style="stroke: #383838; stroke-width: 1.5;" x1="6" x2="95" y1="500.29" y2="500.29"/><text fill="#000000" font-family="sans-serif" font-size="14" lengthAdjust="spacingAndGlyphs" textLength="43" x="29" y="492.3027">State9</text><text fill="#000000" font-family="sans-serif" font-size="12" lengthAdjust="spacingAndGlyphs" textLength="69" x="11" y="516.6924">t = terminal</text><rect fill="#F8F8F8" filter="url(#fuak5k1)" height="50.2529" rx="12.5" ry="12.5" style="stroke: #383838; stroke-width: 1.5;" width="72" x="577" y="346"/><line style="stroke: #383838; stroke-width: 1.5;" x1="577" x2="649" y1="372.29" y2="372.29"/><text fill="#000000" font-family="sans-serif" font-size="14" lengthAdjust="spacingAndGlyphs" textLength="52" x="587" y="364.3027">State10</text><text fill="#000000" font-family="sans-serif" font-size="12" lengthAdjust="spacingAndGlyphs" textLength="30" x="582" y="388.6924">t = 3</text><rect fill="#F8F8F8" filter="url(#fuak5k1)" height="50.2529" rx="12.5" ry="12.5" style="stroke: #383838; stroke-width: 1.5;" width="72" x="524" y="474"/><line style="stroke: #383838; stroke-width: 1.5;" x1="524" x2="596" y1="500.29" y2="500.29"/><text fill="#000000" font-family="sans-serif" font-size="14" lengthAdjust="spacingAndGlyphs" textLength="52" x="534" y="492.3027">State11</text><text fill="#000000" font-family="sans-serif" font-size="12" lengthAdjust="spacingAndGlyphs" textLength="30" x="529" y="516.6924">t = 4</text><path d="M357,28.015 C357,41.2 357,64.976 357,84.342 " fill="none" style="stroke: #383838; stroke-width: 1.0;"/><polygon fill="#383838" points="357,89.675,361,80.675,357,84.675,353,80.675,357,89.675" style="stroke: #383838; stroke-width: 1.0;"/><path d="M328.529,140.107 C317.969,149.458 305.911,160.184 295,170 C278.764,184.608 260.792,200.988 246.001,214.525 " fill="none" style="stroke: #383838; stroke-width: 1.0;"/><polygon fill="#383838" points="242.313,217.903,251.6522,214.7758,246.0008,214.5266,246.25,208.8753,242.313,217.903" style="stroke: #383838; stroke-width: 1.0;"/><text fill="#000000" font-family="sans-serif" font-size="13" lengthAdjust="spacingAndGlyphs" textLength="51" x="296" y="183.3525">action 1</text><path d="M183.79,248.075 C153.094,254.6 106.771,268.779 78,298 C66.5346,309.645 59.6606,326.481 55.5951,341.052 " fill="none" style="stroke: #383838; stroke-width: 1.0;"/><polygon fill="#383838" points="54.3215,345.895,60.4786,338.208,55.5929,341.0593,52.7415,336.1737,54.3215,345.895" style="stroke: #383838; stroke-width: 1.0;"/><text fill="#000000" font-family="sans-serif" font-size="13" lengthAdjust="spacingAndGlyphs" textLength="51" x="79" y="311.3525">action 1</text><path d="M357,140.289 C357,161.063 357,190.555 357,212.611 " fill="none" style="stroke: #383838; stroke-width: 1.0;"/><polygon fill="#383838" points="357,217.764,361,208.764,357,212.764,353,208.764,357,217.764" style="stroke: #383838; stroke-width: 1.0;"/><text fill="#000000" font-family="sans-serif" font-size="13" lengthAdjust="spacingAndGlyphs" textLength="51" x="358" y="183.3525">action 2</text><path d="M388.235,139.68 C415.577,161.283 455.27,192.646 483.744,215.143 " fill="none" style="stroke: #383838; stroke-width: 1.0;"/><polygon fill="#383838" points="487.861,218.396,483.2778,209.6785,483.9374,215.2968,478.3191,215.9564,487.861,218.396" style="stroke: #383838; stroke-width: 1.0;"/><text fill="#000000" font-family="sans-serif" font-size="13" lengthAdjust="spacingAndGlyphs" textLength="51" x="448" y="183.3525">action 3</text><path d="M183.889,258.393 C168.892,267.628 152.374,280.92 144,298 C137.641,310.97 137.533,326.847 139.373,340.478 " fill="none" style="stroke: #383838; stroke-width: 1.0;"/><polygon fill="#383838" points="140.199,345.775,142.7652,336.2663,139.4289,340.8347,134.8606,337.4984,140.199,345.775" style="stroke: #383838; stroke-width: 1.0;"/><text fill="#000000" font-family="sans-serif" font-size="13" lengthAdjust="spacingAndGlyphs" textLength="51" x="145" y="311.3525">action 2</text><path d="M229.272,268.067 C237.346,282.184 247.667,300.116 257,316 C261.855,324.263 267.175,333.186 272.099,341.391 " fill="none" style="stroke: #383838; stroke-width: 1.0;"/><polygon fill="#383838" points="274.789,345.868,273.5813,336.0935,272.2134,341.5824,266.7244,340.2145,274.789,345.868" style="stroke: #383838; stroke-width: 1.0;"/><text fill="#000000" font-family="sans-serif" font-size="13" lengthAdjust="spacingAndGlyphs" textLength="51" x="258" y="311.3525">action 3</text><path d="M517.419,268.289 C516.121,289.063 514.278,318.555 512.899,340.611 " fill="none" style="stroke: #383838; stroke-width: 1.0;"/><polygon fill="#383838" points="512.577,345.764,517.1323,337.0319,512.8899,340.7738,509.148,336.5313,512.577,345.764" style="stroke: #383838; stroke-width: 1.0;"/><text fill="#000000" font-family="sans-serif" font-size="13" lengthAdjust="spacingAndGlyphs" textLength="51" x="516" y="311.3525">action 1</text><path d="M50,396.289 C50,417.063 50,446.555 50,468.6109 " fill="none" style="stroke: #383838; stroke-width: 1.0;"/><polygon fill="#383838" points="50,473.7639,54,464.7639,50,468.7639,46,464.7639,50,473.7639" style="stroke: #383838; stroke-width: 1.0;"/><text fill="#000000" font-family="sans-serif" font-size="13" lengthAdjust="spacingAndGlyphs" textLength="51" x="51" y="439.3525">action 1</text><path d="M547.266,268.118 C556.412,277.034 566.198,287.478 574,298 C583.919,311.377 592.85,327.604 599.655,341.359 " fill="none" style="stroke: #383838; stroke-width: 1.0;"/><polygon fill="#383838" points="601.88,345.921,601.5309,336.0783,599.6886,341.4268,594.3401,339.5846,601.88,345.921" style="stroke: #383838; stroke-width: 1.0;"/><text fill="#000000" font-family="sans-serif" font-size="13" lengthAdjust="spacingAndGlyphs" textLength="51" x="586" y="311.3525">action 2</text><path d="M508.11,396.142 C507.397,410.606 508.147,428.8558 514,444 C517.559,453.209 523.328,461.991 529.596,469.7267 " fill="none" style="stroke: #383838; stroke-width: 1.0;"/><polygon fill="#383838" points="533.119,473.9127,530.3846,464.451,529.8996,470.087,524.2636,469.602,533.119,473.9127" style="stroke: #383838; stroke-width: 1.0;"/><text fill="#000000" font-family="sans-serif" font-size="13" lengthAdjust="spacingAndGlyphs" textLength="51" x="515" y="439.3525">action 1</text><path d="M602.529,396.289 C593.891,417.151 581.612,446.804 572.468,468.8897 " fill="none" style="stroke: #383838; stroke-width: 1.0;"/><polygon fill="#383838" points="570.449,473.7639,577.5877,466.9787,572.3617,469.1442,570.1962,463.9183,570.449,473.7639" style="stroke: #383838; stroke-width: 1.0;"/><text fill="#000000" font-family="sans-serif" font-size="13" lengthAdjust="spacingAndGlyphs" textLength="51" x="590" y="439.3525">action 1</text><path d="M387.425,268.289 C413.242,289.746 450.247,320.504 477.026,342.762 " fill="none" style="stroke: #383838; stroke-width: 1.0;"/><polygon fill="#383838" points="480.9,345.982,476.5364,337.1526,477.0552,342.7856,471.4221,343.3043,480.9,345.982" style="stroke: #383838; stroke-width: 1.0;"/><text fill="#000000" font-family="sans-serif" font-size="13" lengthAdjust="spacingAndGlyphs" textLength="51" x="444" y="311.3525">action 1</text><path d="M343.763,268.289 C332.797,289.239 317.191,319.053 305.615,341.168 " fill="none" style="stroke: #383838; stroke-width: 1.0;"/><polygon fill="#383838" points="303.21,345.764,310.9289,339.6469,305.5297,341.3346,303.8419,335.9354,303.21,345.764" style="stroke: #383838; stroke-width: 1.0;"/><text fill="#000000" font-family="sans-serif" font-size="13" lengthAdjust="spacingAndGlyphs" textLength="47" x="328" y="311.3525">action2</text></g>
<g transform="translate(0.000000,17.000000) scale(0.100000,-0.100000)"
fill="#000000" stroke="none">
<path d="M21 157 c-29 -35 -16 -97 20 -97 15 0 19 -5 15 -16 -3 -9 -6 -20 -6
-25 0 -5 -4 -9 -10 -9 -14 0 -12 27 3 33 6 3 2 6 -10 6 -30 1 -31 -35 -3 -44
28 -9 47 9 55 51 3 20 9 42 12 50 3 8 -1 14 -11 14 -9 0 -16 -8 -16 -19 0 -26
-15 -34 -30 -16 -13 16 -6 48 16 70 14 13 13 15 -4 15 -11 0 -25 -6 -31 -13z"/>
<path d="M80 150 c0 -13 5 -20 13 -17 6 2 12 10 12 17 0 7 -6 15 -12 18 -8 2
-13 -5 -13 -18z"/>
<path d="M347 164 c-13 -13 -7 -24 14 -24 11 0 19 5 17 12 -5 14 -22 21 -31
12z"/>
<path d="M103 85 c-9 -40 -8 -45 8 -45 13 0 19 9 21 33 2 24 7 31 21 29 10 -2
17 3 17 13 0 10 -9 15 -28 15 -26 0 -30 -5 -39 -45z"/>
<path d="M175 101 c-24 -48 -13 -59 64 -60 63 -1 69 1 79 25 15 31 15 64 1 64
-6 0 -8 -8 -5 -18 4 -10 -1 -27 -10 -38 -14 -18 -15 -17 -9 19 5 29 3 37 -9
37 -9 0 -18 -13 -22 -35 -3 -19 -10 -35 -14 -35 -4 0 -4 16 0 35 8 35 8 35
-26 35 -27 0 -36 -6 -49 -29z m47 -6 c-5 -28 -22 -44 -22 -21 0 21 11 46 20
46 4 0 5 -11 2 -25z"/>
<path d="M340 116 c0 -7 -3 -28 -6 -45 -6 -26 -3 -31 13 -31 10 0 25 6 32 12
11 10 13 10 7 1 -5 -9 3 -13 28 -13 25 0 36 4 36 15 0 8 -4 15 -10 15 -5 0
-10 -4 -10 -10 0 -5 -5 -10 -11 -10 -6 0 -2 12 9 28 36 51 36 52 -2 52 -25 0
-36 -4 -36 -15 0 -8 5 -15 10 -15 6 0 10 5 10 12 0 6 3 9 6 6 9 -10 -19 -46
-39 -52 -17 -4 -18 -1 -13 30 6 27 4 34 -9 34 -8 0 -15 -6 -15 -14z"/>
<path d="M472 118 c-7 -7 -12 -27 -12 -46 0 -30 2 -33 27 -30 17 2 32 12 39
27 7 13 18 28 26 33 10 8 9 8 -4 4 -12 -3 -18 0 -18 9 0 18 -41 20 -58 3z m29
-51 c-13 -13 -15 11 -4 40 7 16 8 15 11 -6 2 -13 -1 -28 -7 -34z"/>
</g>
</svg>